<svg xmlns="http://www.w3.org/2000/svg" width="27.093" height="24.674" viewBox="0 0 27.093 24.674"><defs><style>.a{fill:#fff;fill-rule:evenodd;}</style></defs><g transform="translate(0)"><path class="a" d="M94.884,33.7a.453.453,0,1,1,.453.452.453.453,0,0,1-.453-.452" transform="translate(-68.813 -24.552)"/><g transform="translate(26.186 10.003)"><path class="a" d="M.14.989a.453.453,0,1,1,.453.452A.453.453,0,0,1,.14.989" transform="translate(-0.14 -0.537)"/></g><path class="a" d="M95.984,36.224a.3.3,0,1,1,.3.3.3.3,0,0,1-.3-.3" transform="translate(-69.61 -26.494)"/><path class="a" d="M95.626,40.811a.4.4,0,1,1,.4.4.4.4,0,0,1-.4-.4" transform="translate(-69.351 -29.75)"/><path class="a" d="M96.129,42.98a.309.309,0,1,1,.309.308.309.309,0,0,1-.309-.308" transform="translate(-69.715 -31.388)"/><path class="a" d="M96.228,44.81a.235.235,0,1,1,.235.234.235.235,0,0,1-.235-.234" transform="translate(-69.787 -32.77)"/><path class="a" d="M74.892,50.632a.765.765,0,1,1,.765.763.764.764,0,0,1-.765-.763" transform="translate(-54.313 -36.608)"/><path class="a" d="M47.091,67.817a1.154,1.154,0,1,1,1.154,1.151,1.153,1.153,0,0,1-1.154-1.151" transform="translate(-34.152 -48.79)"/><path class="a" d="M63.964,65.722A1.132,1.132,0,1,1,65.1,66.851a1.131,1.131,0,0,1-1.132-1.129" transform="translate(-46.388 -47.287)"/><path class="a" d="M74.8,8.183A1.2,1.2,0,1,1,76,9.374,1.193,1.193,0,0,1,74.8,8.183" transform="translate(-54.248 -5.512)"/><path class="a" d="M84.169,60.475a.771.771,0,1,1,.771.769.77.77,0,0,1-.771-.769" transform="translate(-61.042 -43.742)"/><path class="a" d="M68.538,9.543a.808.808,0,1,1,.808.806.807.807,0,0,1-.808-.806" transform="translate(-49.705 -6.778)"/><path class="a" d="M62.63,8.4a.6.6,0,1,1,.6.6.6.6,0,0,1-.6-.6" transform="translate(-45.421 -6.096)"/><path class="a" d="M78.442,47.579a.764.764,0,1,1,.764.762.763.763,0,0,1-.764-.762" transform="translate(-56.888 -34.395)"/><path class="a" d="M61.511,59.019a.755.755,0,1,1,.755.753.755.755,0,0,1-.755-.753" transform="translate(-44.609 -42.698)"/><path class="a" d="M37.894,52.663a.719.719,0,1,1,.719.717.718.718,0,0,1-.719-.717" transform="translate(-27.482 -38.115)"/><path class="a" d="M57.408,60.8a.562.562,0,1,1,.562.56.561.561,0,0,1-.562-.56" transform="translate(-41.634 -44.127)"/><path class="a" d="M89.6,82.565a.562.562,0,1,1,.562.56.561.561,0,0,1-.562-.56" transform="translate(-64.983 -59.914)"/><path class="a" d="M31.356,65.191a.562.562,0,1,1,.562.56.561.561,0,0,1-.562-.56" transform="translate(-22.74 -47.314)"/><path class="a" d="M27.024,21.421a.514.514,0,1,1,.514.512.513.513,0,0,1-.514-.512" transform="translate(-19.599 -15.606)"/><path class="a" d="M14.39,21.011a.425.425,0,1,1,.425.424.424.424,0,0,1-.425-.424" transform="translate(-10.436 -15.372)"/><path class="a" d="M81.417,36.047a.535.535,0,1,1,.535.534.534.534,0,0,1-.535-.534" transform="translate(-59.046 -26.197)"/><path class="a" d="M10.155,35.135a.439.439,0,1,1,.439.438.438.438,0,0,1-.439-.438" transform="translate(-7.365 -25.605)"/><path class="a" d="M13.853,40.858a.439.439,0,1,1,.44.438.439.439,0,0,1-.44-.438" transform="translate(-10.047 -29.756)"/><path class="a" d="M54.162,7.5a.45.45,0,1,1,.45.449.449.449,0,0,1-.45-.449" transform="translate(-39.28 -5.554)"/><path class="a" d="M15.5,26.357a.458.458,0,1,1,.457.456.457.457,0,0,1-.457-.456" transform="translate(-11.241 -19.226)"/><path class="a" d="M69.144,55.656a.642.642,0,1,1,.642.64.641.641,0,0,1-.642-.64" transform="translate(-50.145 -40.341)"/><path class="a" d="M91.648,80.441a.642.642,0,1,1,.642.64.641.641,0,0,1-.642-.64" transform="translate(-66.465 -58.316)"/><path class="a" d="M79.488,87.35a.648.648,0,1,1,.648.646.647.647,0,0,1-.648-.646" transform="translate(-57.647 -63.322)"/><path class="a" d="M35.1,27.228a.5.5,0,1,1,.5.5.5.5,0,0,1-.5-.5" transform="translate(-25.454 -19.824)"/><path class="a" d="M57.718,14.6a.913.913,0,1,1,.914.911.912.912,0,0,1-.914-.911" transform="translate(-41.859 -10.367)"/><path class="a" d="M83.93,70.958a1,1,0,1,1,1,1,1,1,0,0,1-1-1" transform="translate(-60.868 -51.18)"/><path class="a" d="M71.064,5.3a.92.92,0,1,1,.92.917.919.919,0,0,1-.92-.917" transform="translate(-51.538 -3.62)"/><path class="a" d="M37.214,45.352a.906.906,0,1,1,.906.9.9.9,0,0,1-.906-.9" transform="translate(-26.988 -32.677)"/><path class="a" d="M70.595,58.618a.91.91,0,1,1,.91.907.908.908,0,0,1-.91-.907" transform="translate(-51.197 -42.296)"/><path class="a" d="M88.513,21.7a.906.906,0,1,1,.906.9.9.9,0,0,1-.906-.9" transform="translate(-64.192 -15.526)"/><path class="a" d="M78.968,77.719a.658.658,0,1,1,.658.656.657.657,0,0,1-.658-.656" transform="translate(-57.27 -56.331)"/><path class="a" d="M20.078,52.344a.418.418,0,1,1,.418.417.418.418,0,0,1-.418-.417" transform="translate(-14.561 -38.101)"/><path class="a" d="M17.95,48.591a.287.287,0,1,1,.287.286.287.287,0,0,1-.287-.286" transform="translate(-13.018 -35.474)"/><path class="a" d="M14.757,52.029a.409.409,0,1,1,.409.407.408.408,0,0,1-.409-.407" transform="translate(-10.703 -37.879)"/><path class="a" d="M30.028,59.685a.658.658,0,1,1,.658.656.657.657,0,0,1-.658-.656" transform="translate(-21.777 -43.251)"/><path class="a" d="M55.485,2.345a.664.664,0,1,1,.664.662.663.663,0,0,1-.664-.662" transform="translate(-40.239 -1.663)"/><path class="a" d="M74.989,66.693a.763.763,0,1,1,.764.761.763.763,0,0,1-.764-.761" transform="translate(-54.384 -48.257)"/><path class="a" d="M47.921,15.515a.64.64,0,1,1,.64.638.639.639,0,0,1-.64-.638" transform="translate(-34.754 -11.232)"/><path class="a" d="M51.679,70.9a.812.812,0,1,1,.812.81.811.811,0,0,1-.812-.81" transform="translate(-37.479 -51.272)"/><path class="a" d="M90.3,77.865a.6.6,0,1,1,.6.6.6.6,0,0,1-.6-.6" transform="translate(-65.488 -56.475)"/><path class="a" d="M36.215,24.644a.4.4,0,1,1,.4.4.4.4,0,0,1-.4-.4" transform="translate(-26.264 -18.023)"/><path class="a" d="M12.683,48.277a.4.4,0,1,1,.4.4.4.4,0,0,1-.4-.4" transform="translate(-9.198 -35.163)"/><path class="a" d="M56.422,11.683a.4.4,0,1,1,.4.4.4.4,0,0,1-.4-.4" transform="translate(-40.919 -8.623)"/><path class="a" d="M79.151,71.021a.41.41,0,1,1,.41.409.409.409,0,0,1-.41-.409" transform="translate(-57.402 -51.651)"/><path class="a" d="M85.251,13.4a.517.517,0,1,1,.517.516.516.516,0,0,1-.517-.516" transform="translate(-61.826 -9.787)"/><path class="a" d="M53.138,2.53a.453.453,0,1,1,.453.451.452.452,0,0,1-.453-.451" transform="translate(-38.537 -1.949)"/><path class="a" d="M63.26,72.762a.4.4,0,1,1,.4.4.4.4,0,0,1-.4-.4" transform="translate(-45.878 -52.919)"/><path class="a" d="M41.342,20.829a.506.506,0,1,1,.506.5.505.505,0,0,1-.506-.5" transform="translate(-29.982 -15.182)"/><path class="a" d="M88.833,84.447a.4.4,0,1,1,.4.4.4.4,0,0,1-.4-.4" transform="translate(-64.424 -61.394)"/><path class="a" d="M55.075,17.83a.462.462,0,1,1,.462.46.461.461,0,0,1-.462-.46" transform="translate(-39.942 -13.039)"/><path class="a" d="M71.932,64.945a.455.455,0,1,1,.454.453.454.454,0,0,1-.454-.453" transform="translate(-52.167 -47.213)"/><path class="a" d="M44.487,59.251a.4.4,0,1,1,.4.4.4.4,0,0,1-.4-.4" transform="translate(-32.264 -43.121)"/><path class="a" d="M13.986,15.24a.4.4,0,1,1,.4.4.4.4,0,0,1-.4-.4" transform="translate(-10.143 -11.203)"/><path class="a" d="M5.08,51.11a.4.4,0,1,1,.4.4.4.4,0,0,1-.4-.4" transform="translate(-3.684 -37.217)"/><path class="a" d="M.12,57.956a.4.4,0,1,1,.4.4.4.4,0,0,1-.4-.4" transform="translate(-0.087 -42.182)"/><path class="a" d="M40.876,62.521a.4.4,0,1,1,.4.4.4.4,0,0,1-.4-.4" transform="translate(-29.644 -45.492)"/><path class="a" d="M75.884,26.079a.4.4,0,1,1,.4.4.4.4,0,0,1-.4-.4" transform="translate(-55.033 -19.064)"/><path class="a" d="M22.444,57.366a.4.4,0,1,1,.4.4.4.4,0,0,1-.4-.4" transform="translate(-16.277 -41.754)"/><path class="a" d="M32.1,21.469a.465.465,0,1,1,.465.463.464.464,0,0,1-.465-.463" transform="translate(-23.283 -15.675)"/><path class="a" d="M7.636,17.341a.323.323,0,1,1,.323.322.323.323,0,0,1-.323-.322" transform="translate(-5.538 -12.785)"/><path class="a" d="M46.23,10.057a.465.465,0,1,1,.465.464.464.464,0,0,1-.465-.464" transform="translate(-33.527 -7.4)"/><path class="a" d="M73.628,52.41a.4.4,0,1,1,.4.4.4.4,0,0,1-.4-.4" transform="translate(-53.397 -38.16)"/><path class="a" d="M42.259,16.523a.4.4,0,1,1,.4.4.4.4,0,0,1-.4-.4" transform="translate(-30.647 -12.133)"/><path class="a" d="M77.275,63.009a.458.458,0,1,1,.458.457.458.458,0,0,1-.458-.457" transform="translate(-56.042 -45.806)"/><path class="a" d="M85.733,53.367a.5.5,0,1,1,.5.5.5.5,0,0,1-.5-.5" transform="translate(-62.176 -38.78)"/><path class="a" d="M66.86,56.906a.4.4,0,1,1,.4.4.4.4,0,0,1-.4-.4" transform="translate(-48.489 -41.42)"/><path class="a" d="M60.919,10.745a.459.459,0,1,1,.459.458.459.459,0,0,1-.459-.458" transform="translate(-44.18 -7.903)"/><path class="a" d="M79.749,37.2a.4.4,0,1,1,.4.4.4.4,0,0,1-.4-.4" transform="translate(-57.836 -27.133)"/><path class="a" d="M81.846,73.593a.4.4,0,1,1,.4.4.4.4,0,0,1-.4-.4" transform="translate(-59.357 -53.522)"/><path class="a" d="M43.615,52.48a.685.685,0,1,1,.685.683.684.684,0,0,1-.685-.683" transform="translate(-31.631 -38.007)"/><path class="a" d="M10.287,61.422a.383.383,0,1,1,.383.382.383.383,0,0,1-.383-.382" transform="translate(-7.461 -44.71)"/><path class="a" d="M20.294,67a.459.459,0,1,1,.459.458A.459.459,0,0,1,20.294,67" transform="translate(-14.718 -48.701)"/><path class="a" d="M19.229,16.5a.685.685,0,1,1,.685.683.684.684,0,0,1-.685-.683" transform="translate(-13.946 -11.911)"/><path class="a" d="M47.023,54.914a.6.6,0,1,1,.6.6.6.6,0,0,1-.6-.6" transform="translate(-34.103 -39.831)"/><path class="a" d="M50.235,56.255a.474.474,0,1,1,.473.472.473.473,0,0,1-.473-.472" transform="translate(-36.432 -40.897)"/><path class="a" d="M40.438,26.364a.676.676,0,1,1,.676.674.675.675,0,0,1-.676-.674" transform="translate(-29.327 -19.073)"/><g transform="translate(16.263)"><path class="a" d="M1.122,1.881a.764.764,0,1,1,.764.762.763.763,0,0,1-.764-.762" transform="translate(-1.122 -1.119)"/></g><path class="a" d="M63.866,2.085a.4.4,0,1,1,.4.4.4.4,0,0,1-.4-.4" transform="translate(-46.317 -1.663)"/><path class="a" d="M88.8,25.755a1.132,1.132,0,1,1,1.132,1.129A1.131,1.131,0,0,1,88.8,25.755" transform="translate(-64.4 -18.301)"/><path class="a" d="M90.7,42.99a.977.977,0,1,1,.977.974.976.976,0,0,1-.977-.974" transform="translate(-65.779 -30.913)"/><path class="a" d="M91.8,47.056a.755.755,0,1,1,.755.753.754.754,0,0,1-.755-.753" transform="translate(-66.577 -34.022)"/><path class="a" d="M89.485,48.627a.472.472,0,1,1,.472.471.471.471,0,0,1-.472-.471" transform="translate(-64.897 -35.366)"/><path class="a" d="M92.476,50.883a.489.489,0,1,1,.489.488.489.489,0,0,1-.489-.488" transform="translate(-67.066 -36.99)"/><path class="a" d="M77.941,20.124a.762.762,0,1,1,.762.76.761.761,0,0,1-.762-.76" transform="translate(-56.525 -14.486)"/><path class="a" d="M37.415,7.184a.762.762,0,1,1,.762.76.761.761,0,0,1-.762-.76" transform="translate(-27.135 -5.101)"/><path class="a" d="M40.257,67.6a.5.5,0,1,1,.5.5.5.5,0,0,1-.5-.5" transform="translate(-29.195 -49.106)"/><path class="a" d="M89.094,53.346a.746.746,0,1,1,.746.744.745.745,0,0,1-.746-.744" transform="translate(-64.614 -38.591)"/><path class="a" d="M86.021,33.472a.7.7,0,1,1,.7.693.694.694,0,0,1-.7-.693" transform="translate(-62.385 -24.214)"/><path class="a" d="M63.4,60.995a.686.686,0,1,1,.686.684.685.685,0,0,1-.686-.684" transform="translate(-45.981 -44.181)"/><path class="a" d="M15.337,57.609a.471.471,0,1,1,.471.47.471.471,0,0,1-.471-.47" transform="translate(-11.123 -41.881)"/><path class="a" d="M84.043,49.176a.679.679,0,1,1,.679.677.678.678,0,0,1-.679-.677" transform="translate(-60.95 -35.614)"/><path class="a" d="M69.528,69.576a.751.751,0,1,1,.751.749.75.75,0,0,1-.751-.749" transform="translate(-50.424 -50.357)"/><path class="a" d="M80.658,24.672a.679.679,0,1,1,.679.677.678.678,0,0,1-.679-.677" transform="translate(-58.495 -17.844)"/><path class="a" d="M21.138,22.237a.679.679,0,1,1,.679.677.678.678,0,0,1-.679-.677" transform="translate(-15.33 -16.078)"/><path class="a" d="M20.143,35.737a.7.7,0,1,1,.7.7.7.7,0,0,1-.7-.7" transform="translate(-14.608 -25.854)"/><path class="a" d="M38.148,18.8a.679.679,0,1,1,.679.677.678.678,0,0,1-.679-.677" transform="translate(-27.666 -13.584)"/><path class="a" d="M40.09,58.2a.55.55,0,1,1,.55.548.549.549,0,0,1-.55-.548" transform="translate(-29.074 -42.254)"/><path class="a" d="M82.742,56.014a.679.679,0,1,1,.679.677.678.678,0,0,1-.679-.677" transform="translate(-60.007 -40.574)"/><path class="a" d="M80.075,59.1a.679.679,0,1,1,.679.677.678.678,0,0,1-.679-.677" transform="translate(-58.073 -42.814)"/><path class="a" d="M61.788,69.072a.679.679,0,1,1,.679.677.678.678,0,0,1-.679-.677" transform="translate(-44.811 -50.044)"/><path class="a" d="M49.912,12.142a.679.679,0,1,1,.679.677.678.678,0,0,1-.679-.677" transform="translate(-36.198 -8.757)"/><path class="a" d="M64.942,57.526a.488.488,0,1,1,.488.486.487.487,0,0,1-.488-.486" transform="translate(-47.098 -41.809)"/><path class="a" d="M7.827,42.53a.481.481,0,1,1,.481.479.48.48,0,0,1-.481-.479" transform="translate(-5.676 -30.938)"/><path class="a" d="M42.738,12.764a.453.453,0,1,1,.453.452.452.452,0,0,1-.453-.452" transform="translate(-30.994 -9.371)"/><path class="a" d="M31.334,39.493a.453.453,0,1,1,.453.452.452.452,0,0,1-.453-.452" transform="translate(-22.724 -28.756)"/><path class="a" d="M41.655,48.546a.465.465,0,1,1,.465.463.464.464,0,0,1-.465-.463" transform="translate(-30.21 -35.313)"/><path class="a" d="M85.07,28.568a.673.673,0,1,1,.673.671.672.672,0,0,1-.673-.671" transform="translate(-61.695 -20.674)"/><path class="a" d="M51.612,17.138a.685.685,0,1,1,.685.683.683.683,0,0,1-.685-.683" transform="translate(-37.43 -12.376)"/><path class="a" d="M45.058,62.669a.453.453,0,1,1,.453.452.452.452,0,0,1-.453-.452" transform="translate(-32.677 -45.563)"/><path class="a" d="M43.114,5.764a.466.466,0,1,1,.467.465.466.466,0,0,1-.467-.465" transform="translate(-31.267 -4.285)"/><path class="a" d="M72.436,13.2a.453.453,0,1,1,.453.452.453.453,0,0,1-.453-.452" transform="translate(-52.533 -9.684)"/><path class="a" d="M55.488,57.872a.461.461,0,1,1,.461.46.461.461,0,0,1-.461-.46" transform="translate(-40.241 -42.078)"/><path class="a" d="M31.787,13.941a.561.561,0,1,1,.561.559.56.56,0,0,1-.561-.559" transform="translate(-23.053 -10.147)"/><path class="a" d="M28.533,55.437a.521.521,0,1,1,.521.52.52.52,0,0,1-.521-.52" transform="translate(-20.693 -40.27)"/><path class="a" d="M50.769,5.68a.5.5,0,1,1,.5.5.5.5,0,0,1-.5-.5" transform="translate(-36.819 -4.201)"/><path class="a" d="M79.719,39.509a.453.453,0,1,1,.453.452.452.452,0,0,1-.453-.452" transform="translate(-57.815 -28.767)"/><path class="a" d="M26.65,36.77a.512.512,0,0,1,1.023,0,.512.512,0,0,1-1.023,0" transform="translate(-19.327 -26.739)"/><path class="a" d="M68.6,3.191a.453.453,0,1,1,.453.452.452.452,0,0,1-.453-.452" transform="translate(-49.752 -2.428)"/><path class="a" d="M65.529,16.624a.471.471,0,1,1,.471.469.47.47,0,0,1-.471-.469" transform="translate(-47.524 -12.158)"/><path class="a" d="M84.856,66.513a.456.456,0,1,1,.456.455.456.456,0,0,1-.456-.455" transform="translate(-61.54 -48.349)"/><path class="a" d="M37.489,64.086a.456.456,0,1,1,.456.455.455.455,0,0,1-.456-.455" transform="translate(-27.188 -46.589)"/><path class="a" d="M57.622,16.918a.464.464,0,1,1,.464.462.463.463,0,0,1-.464-.462" transform="translate(-41.789 -12.376)"/><path class="a" d="M90.984,34.468a.453.453,0,1,1,.453.452.453.453,0,0,1-.453-.452" transform="translate(-65.984 -25.112)"/><path class="a" d="M53.828,66.978a.309.309,0,1,1,.309.308.309.309,0,0,1-.309-.308" transform="translate(-39.037 -48.793)"/><path class="a" d="M48.142,64.88a.308.308,0,1,1,.308.307.307.307,0,0,1-.308-.307" transform="translate(-34.914 -47.272)"/><path class="a" d="M33.63,26.429a.3.3,0,1,1,.3.3.3.3,0,0,1-.3-.3" transform="translate(-24.39 -19.39)"/><path class="a" d="M26.462,65.812a.3.3,0,1,1,.3.3.3.3,0,0,1-.3-.3" transform="translate(-19.191 -47.952)"/><path class="a" d="M72.688,18.775a.474.474,0,1,1,.474.473.473.473,0,0,1-.474-.473" transform="translate(-52.715 -13.715)"/><path class="a" d="M63.155,66.137a.331.331,0,1,1,.331.33.33.33,0,0,1-.331-.33" transform="translate(-45.802 -48.167)"/><path class="a" d="M52.758,56.921a.335.335,0,1,1,.335.334.334.334,0,0,1-.335-.334" transform="translate(-38.262 -41.481)"/><path class="a" d="M90.989,75.585a.3.3,0,1,1,.3.3.3.3,0,0,1-.3-.3" transform="translate(-65.988 -55.039)"/><path class="a" d="M38.228,50.011a.432.432,0,1,1,.432.431.431.431,0,0,1-.432-.431" transform="translate(-27.724 -36.399)"/><path class="a" d="M43.938,50.228a.3.3,0,1,1,.3.3.3.3,0,0,1-.3-.3" transform="translate(-31.865 -36.65)"/><path class="a" d="M76.3,13.76a.546.546,0,1,1,.546.544.545.545,0,0,1-.546-.544" transform="translate(-55.335 -10.027)"/><path class="a" d="M65.588,73.82a.357.357,0,1,1,.358.356.357.357,0,0,1-.358-.356" transform="translate(-47.566 -53.719)"/><path class="a" d="M31.466,69.92a.357.357,0,1,1,.358.357.357.357,0,0,1-.358-.357" transform="translate(-22.82 -50.892)"/><path class="a" d="M80.127,74.764a.392.392,0,1,1,.393.391.392.392,0,0,1-.393-.391" transform="translate(-58.11 -54.379)"/><path class="a" d="M86.59,37.237a.387.387,0,1,1,.386.385.386.386,0,0,1-.386-.385" transform="translate(-62.797 -27.168)"/><path class="a" d="M33.533,49.04a.337.337,0,1,1,.337.336.336.336,0,0,1-.337-.336" transform="translate(-24.319 -35.763)"/><path class="a" d="M43.127,69.431a.518.518,0,1,1,.518.516.517.517,0,0,1-.518-.516" transform="translate(-31.277 -50.42)"/><path class="a" d="M10.456,54.7a.337.337,0,1,1,.337.336.336.336,0,0,1-.337-.336" transform="translate(-7.583 -39.869)"/><path class="a" d="M28.511,30.7a.3.3,0,1,1,.3.3.3.3,0,0,1-.3-.3" transform="translate(-20.677 -22.49)"/><path class="a" d="M15.647,34.717a.3.3,0,1,1,.3.3.3.3,0,0,1-.3-.3" transform="translate(-11.348 -25.401)"/><path class="a" d="M4.025,33.3a.36.36,0,1,1,.36.359.359.359,0,0,1-.36-.359" transform="translate(-2.919 -24.332)"/><path class="a" d="M25.252,33.279a.343.343,0,1,1,.343.342.342.342,0,0,1-.343-.342" transform="translate(-18.314 -24.329)"/><path class="a" d="M12.522,31.088a.3.3,0,1,1,.3.3.3.3,0,0,1-.3-.3" transform="translate(-9.082 -22.769)"/><path class="a" d="M28.892,18.07a.422.422,0,1,1,.422.421.421.421,0,0,1-.422-.421" transform="translate(-20.954 -13.241)"/><path class="a" d="M76.668,48.8a.3.3,0,1,1,.3.3.3.3,0,0,1-.3-.3" transform="translate(-55.602 -35.611)"/><path class="a" d="M71.48,3.812a.3.3,0,1,1,.3.3.3.3,0,0,1-.3-.3" transform="translate(-51.839 -2.988)"/><path class="a" d="M83.459,21.69a.3.3,0,1,1,.3.3.3.3,0,0,1-.3-.3" transform="translate(-60.526 -15.954)"/><path class="a" d="M54.448,57.364a.3.3,0,1,1,.3.3.3.3,0,0,1-.3-.3" transform="translate(-39.487 -41.825)"/><path class="a" d="M45.588,4.793a.346.346,0,1,1,.346.346.346.346,0,0,1-.346-.346" transform="translate(-33.062 -3.668)"/><path class="a" d="M79.573,35.287a.381.381,0,1,1,.381.38.381.381,0,0,1-.381-.38" transform="translate(-57.708 -25.758)"/><path class="a" d="M76.947,27.778a.45.45,0,1,1,.45.449.449.449,0,0,1-.45-.449" transform="translate(-55.804 -20.262)"/><path class="a" d="M57.279,69.9a.3.3,0,1,1,.3.3.3.3,0,0,1-.3-.3" transform="translate(-41.54 -50.916)"/><path class="a" d="M83.366,47.9a.314.314,0,1,1,.314.313.314.314,0,0,1-.314-.313" transform="translate(-60.459 -34.954)"/><path class="a" d="M86.673,81.015a.314.314,0,1,1,.315.313.314.314,0,0,1-.315-.313" transform="translate(-62.858 -58.969)"/><path class="a" d="M35.377,67.414a.3.3,0,1,1,.3.3.3.3,0,0,1-.3-.3" transform="translate(-25.656 -49.114)"/><path class="a" d="M75.741,82.278a.3.3,0,1,1,.3.3.3.3,0,0,1-.3-.3" transform="translate(-54.929 -59.893)"/><path class="a" d="M77.494,47.293a.328.328,0,1,1,.328.327.328.328,0,0,1-.328-.327" transform="translate(-56.2 -34.503)"/><path class="a" d="M29.374,28.313a.46.46,0,1,1,.46.459.459.459,0,0,1-.46-.459" transform="translate(-21.303 -20.643)"/><path class="a" d="M79.034,32.385a.5.5,0,1,1,.5.5.5.5,0,0,1-.5-.5" transform="translate(-57.318 -23.564)"/><path class="a" d="M48.583,60.4a.5.5,0,1,1,.5.5.5.5,0,0,1-.5-.5" transform="translate(-35.234 -43.884)"/><path class="a" d="M19,42.628a.5.5,0,1,1,.5.5.5.5,0,0,1-.5-.5" transform="translate(-13.776 -30.993)"/><path class="a" d="M66.019,2.661a.465.465,0,1,1,.465.464.465.465,0,0,1-.465-.464" transform="translate(-47.879 -2.036)"/><path class="a" d="M50.752,3.019a.408.408,0,1,1,.408.407.407.407,0,0,1-.408-.407" transform="translate(-36.806 -2.337)"/><path class="a" d="M46.849,4.105a.764.764,0,1,1,.765.763.763.763,0,0,1-.765-.763" transform="translate(-33.976 -2.867)"/><path class="a" d="M44.119,18.484a.911.911,0,1,1,.911.908.91.91,0,0,1-.911-.908" transform="translate(-31.996 -13.188)"/><path class="a" d="M42.657,24.686a.548.548,0,1,1,.548.546.547.547,0,0,1-.548-.546" transform="translate(-30.936 -17.949)"/><path class="a" d="M14.713,63.832a.46.46,0,1,1,.46.459.46.46,0,0,1-.46-.459" transform="translate(-10.671 -46.402)"/><path class="a" d="M35.861,13.544a.628.628,0,1,1,.628.626.628.628,0,0,1-.628-.626" transform="translate(-26.007 -9.81)"/><path class="a" d="M31.631,8.634a.628.628,0,1,1,.628.626.627.627,0,0,1-.628-.626" transform="translate(-22.94 -6.249)"/><path class="a" d="M19.314,29.539a.628.628,0,1,1,.628.626.627.627,0,0,1-.628-.626" transform="translate(-14.007 -21.411)"/><path class="a" d="M9.353,25.129a.527.527,0,1,1,.527.526.527.527,0,0,1-.527-.526" transform="translate(-6.783 -18.285)"/><path class="a" d="M71.56,54.185a.532.532,0,1,1,.532.531.532.532,0,0,1-.532-.531" transform="translate(-51.897 -39.353)"/><path class="a" d="M45.481,70.942a.482.482,0,1,1,.481.48.48.48,0,0,1-.481-.48" transform="translate(-32.984 -51.543)"/><path class="a" d="M82.783,39.114a.573.573,0,1,1,.573.572.573.573,0,0,1-.573-.572" transform="translate(-60.036 -28.394)"/><path class="a" d="M25.678,43.417a.508.508,0,1,1,.508.506.507.507,0,0,1-.508-.506" transform="translate(-18.622 -31.562)"/><path class="a" d="M29.452,46.81a.729.729,0,1,1,.729.727.728.728,0,0,1-.729-.727" transform="translate(-21.359 -33.862)"/><path class="a" d="M32.985,43.157a.48.48,0,1,1,.48.479.479.479,0,0,1-.48-.479" transform="translate(-23.921 -31.393)"/><path class="a" d="M77.884,83.612a.831.831,0,1,1,.831.828.829.829,0,0,1-.831-.828" transform="translate(-56.484 -60.479)"/><path class="a" d="M85.733,83.391a.5.5,0,1,1,.5.5.5.5,0,0,1-.5-.5" transform="translate(-62.176 -60.555)"/><path class="a" d="M25.867,68.763a.5.5,0,1,1,.5.5.5.5,0,0,1-.5-.5" transform="translate(-18.759 -49.946)"/><path class="a" d="M33.892,32.283a1.2,1.2,0,1,1,1.195,1.191,1.193,1.193,0,0,1-1.195-1.191" transform="translate(-24.579 -22.991)"/><path class="a" d="M32.422,54.509A1.2,1.2,0,1,1,33.617,55.7a1.193,1.193,0,0,1-1.195-1.191" transform="translate(-23.514 -39.11)"/><path class="a" d="M36.206,37.635a.808.808,0,1,1,.808.806.807.807,0,0,1-.808-.806" transform="translate(-26.257 -27.152)"/><path class="a" d="M38.557,41.446a.535.535,0,1,1,.535.534.535.535,0,0,1-.535-.534" transform="translate(-27.963 -30.112)"/><path class="a" d="M70.773,72.483a.683.683,0,1,1,.683.68.681.681,0,0,1-.683-.68" transform="translate(-51.326 -52.515)"/><path class="a" d="M85.4,22.848a.715.715,0,1,1,.714.713.713.713,0,0,1-.714-.713" transform="translate(-61.931 -16.496)"/><path class="a" d="M81.493,32.171a.708.708,0,1,1,.708.706.707.707,0,0,1-.708-.706" transform="translate(-59.101 -23.262)"/><path class="a" d="M0,26.911a.343.343,0,1,1,.343.342A.343.343,0,0,1,0,26.911" transform="translate(0 -19.71)"/><path class="a" d="M79.573,65.619a.7.7,0,1,1,.7.7.7.7,0,0,1-.7-.7" transform="translate(-57.708 -47.522)"/><path class="a" d="M56.583,71.612a.768.768,0,1,1,.768.765.767.767,0,0,1-.768-.765" transform="translate(-41.035 -51.822)"/><path class="a" d="M84.054,42.156a.712.712,0,1,1,.712.71.711.711,0,0,1-.712-.71" transform="translate(-60.958 -30.5)"/><path class="a" d="M68.38,15.583a.737.737,0,1,1,.737.735.736.736,0,0,1-.737-.735" transform="translate(-49.591 -11.21)"/><path class="a" d="M75.92,71.839a.682.682,0,1,1,.682.68.68.68,0,0,1-.682-.68" transform="translate(-55.059 -52.049)"/><path class="a" d="M88.176,56.451a.67.67,0,1,1,.67.668.669.669,0,0,1-.67-.668" transform="translate(-63.948 -40.897)"/><path class="a" d="M52.563,62.768a.723.723,0,1,1,.723.721.722.722,0,0,1-.723-.721" transform="translate(-38.12 -45.44)"/><path class="a" d="M81.731,81.4a.68.68,0,1,1,.68.678.679.679,0,0,1-.68-.678" transform="translate(-59.273 -58.987)"/><path class="a" d="M57.408,65.917a.474.474,0,1,1,.473.472.473.473,0,0,1-.473-.472" transform="translate(-41.634 -47.904)"/><path class="a" d="M78.442,52.853a.7.7,0,1,1,.7.7.7.7,0,0,1-.7-.7" transform="translate(-56.888 -38.267)"/><path class="a" d="M73.34,22.185a.7.7,0,1,1,.7.7.7.7,0,0,1-.7-.7" transform="translate(-53.188 -16.025)"/><path class="a" d="M76.93,56.835a.682.682,0,1,1,.682.68.681.681,0,0,1-.682-.68" transform="translate(-55.791 -41.167)"/><path class="a" d="M92.788,30.972a.711.711,0,1,1,.711.709.71.71,0,0,1-.711-.709" transform="translate(-67.292 -22.39)"/><path class="a" d="M79.269,15.373a.719.719,0,1,1,.719.717.718.718,0,0,1-.719-.717" transform="translate(-57.488 -11.071)"/><path class="a" d="M22.373,47.057a.458.458,0,1,1,.458.457.458.458,0,0,1-.458-.457" transform="translate(-16.226 -34.238)"/><path class="a" d="M72.33,15.736a.679.679,0,1,1,.679.677.678.678,0,0,1-.679-.677" transform="translate(-52.456 -11.363)"/><path class="a" d="M78.442,44.966a.508.508,0,1,1,.508.506.507.507,0,0,1-.508-.506" transform="translate(-56.888 -32.685)"/><path class="a" d="M44.965,23.163a.462.462,0,1,1,.462.46.461.461,0,0,1-.462-.46" transform="translate(-32.61 -16.906)"/><path class="a" d="M78.177,29.847a.51.51,0,1,1,.51.508.509.509,0,0,1-.51-.508" transform="translate(-56.696 -21.719)"/><path class="a" d="M90.827,38.729a.453.453,0,1,1,.453.452.452.452,0,0,1-.453-.452" transform="translate(-65.87 -28.202)"/><path class="a" d="M63.381,17.991a.468.468,0,1,1,.468.467.468.468,0,0,1-.468-.467" transform="translate(-45.965 -13.151)"/><path class="a" d="M25.348,27.341a.46.46,0,1,1,.46.459.46.46,0,0,1-.46-.459" transform="translate(-18.383 -19.937)"/><path class="a" d="M88.338,31.823a.493.493,0,1,1,.492.491.492.492,0,0,1-.492-.491" transform="translate(-64.065 -23.164)"/><path class="a" d="M19.9,61.815a.453.453,0,1,1,.453.452.453.453,0,0,1-.453-.452" transform="translate(-14.434 -44.944)"/><path class="a" d="M60.051,73.693a.456.456,0,1,1,.456.454.455.455,0,0,1-.456-.454" transform="translate(-43.551 -53.557)"/><path class="a" d="M85.387,85.541a.488.488,0,1,1,.488.487.488.488,0,0,1-.488-.487" transform="translate(-61.925 -62.126)"/><path class="a" d="M72.085,75.344a.453.453,0,1,1,.453.452.453.453,0,0,1-.453-.452" transform="translate(-52.278 -54.756)"/><path class="a" d="M85.995,68.61a.465.465,0,1,1,.465.464.465.465,0,0,1-.465-.464" transform="translate(-62.365 -49.863)"/><path class="a" d="M26.486,13.464a.453.453,0,1,1,.453.452.452.452,0,0,1-.453-.452" transform="translate(-19.208 -9.879)"/><path class="a" d="M76.738,83.525a.453.453,0,1,1,.453.452.452.452,0,0,1-.453-.452" transform="translate(-55.652 -60.689)"/><path class="a" d="M89.831,75.311a.465.465,0,1,1,.465.464.465.465,0,0,1-.465-.464" transform="translate(-65.148 -54.723)"/><path class="a" d="M24.794,51.931a.446.446,0,1,1,.446.445.445.445,0,0,1-.446-.445" transform="translate(-17.981 -37.781)"/><path class="a" d="M73.105,77.628a.336.336,0,1,1,.336.335.335.335,0,0,1-.336-.335" transform="translate(-53.018 -56.497)"/><path class="a" d="M4.806,25.661a.3.3,0,1,1,.3.3.3.3,0,0,1-.3-.3" transform="translate(-3.485 -18.833)"/><path class="a" d="M60.917,64.553a.333.333,0,1,1,.333.332.332.332,0,0,1-.333-.332" transform="translate(-44.179 -47.017)"/><path class="a" d="M62.675,74.175a.354.354,0,1,1,.354.353.353.353,0,0,1-.354-.353" transform="translate(-45.454 -53.979)"/><path class="a" d="M45.363,66.345a.311.311,0,1,1,.311.31.31.31,0,0,1-.311-.31" transform="translate(-32.899 -48.332)"/><path class="a" d="M37.1,69.457a.311.311,0,1,1,.311.31.31.31,0,0,1-.311-.31" transform="translate(-26.904 -50.589)"/><path class="a" d="M65.844,18.828a.384.384,0,1,1,.384.383.384.384,0,0,1-.384-.383" transform="translate(-47.752 -13.819)"/><path class="a" d="M74.646,80.4a.316.316,0,1,1,.316.315.315.315,0,0,1-.316-.315" transform="translate(-54.135 -58.524)"/><path class="a" d="M82.359,44.112a.3.3,0,1,1,.3.3.3.3,0,0,1-.3-.3" transform="translate(-59.729 -32.215)"/><path class="a" d="M87.255,59.926a.485.485,0,1,1,.485.483.484.484,0,0,1-.485-.483" transform="translate(-63.279 -43.551)"/><path class="a" d="M85.064,64.618a.318.318,0,1,1,.318.317.317.317,0,0,1-.318-.317" transform="translate(-61.69 -47.075)"/><path class="a" d="M89.716,73.453a.35.35,0,1,1,.35.349.349.349,0,0,1-.35-.349" transform="translate(-65.065 -53.459)"/><path class="a" d="M84.624,87.174a.35.35,0,1,1,.35.349.349.349,0,0,1-.35-.349" transform="translate(-61.372 -63.41)"/><path class="a" d="M58.353,58.013a.3.3,0,1,1,.3.3.3.3,0,0,1-.3-.3" transform="translate(-42.319 -42.296)"/><path class="a" d="M67.93,60.176a.353.353,0,1,1,.353.352.352.352,0,0,1-.353-.352" transform="translate(-49.264 -43.828)"/><path class="a" d="M61.054,67.092a.2.2,0,1,1,.2.2.2.2,0,0,1-.2-.2" transform="translate(-44.278 -48.953)"/><path class="a" d="M88.222,86.181a.245.245,0,1,1,.245.244.244.244,0,0,1-.245-.244" transform="translate(-63.981 -62.766)"/><path class="a" d="M60.242,58a.2.2,0,1,1,.2.2.2.2,0,0,1-.2-.2" transform="translate(-43.689 -42.361)"/><path class="a" d="M69.8,61.683a.2.2,0,1,1,.2.2.2.2,0,0,1-.2-.2" transform="translate(-50.619 -45.031)"/><path class="a" d="M79.17,43.214a.226.226,0,1,1,.227.226.226.226,0,0,1-.227-.226" transform="translate(-57.416 -31.618)"/><path class="a" d="M84.046,88.733a.2.2,0,1,1,.2.2.2.2,0,0,1-.2-.2" transform="translate(-60.952 -64.648)"/><path class="a" d="M26.464,61.695a.28.28,0,1,1,.28.279.279.279,0,0,1-.28-.279" transform="translate(-19.192 -44.983)"/><path class="a" d="M86.516,46.985a.229.229,0,1,1,.229.228.228.228,0,0,1-.229-.228" transform="translate(-62.743 -34.352)"/><path class="a" d="M73.68,79.333a.178.178,0,1,1,.178.177.177.177,0,0,1-.178-.177" transform="translate(-53.435 -57.848)"/><path class="a" d="M84.86,86.6a.165.165,0,1,1,.165.165.165.165,0,0,1-.165-.165" transform="translate(-61.543 -63.127)"/><path class="a" d="M79.491,41.7a.178.178,0,1,1,.178.178.178.178,0,0,1-.178-.178" transform="translate(-57.649 -30.555)"/><path class="a" d="M89.912,72.344a.177.177,0,1,1,.177.177.177.177,0,0,1-.177-.177" transform="translate(-65.206 -52.78)"/><path class="a" d="M70.766,64.292a.237.237,0,1,1,.237.237.237.237,0,0,1-.237-.237" transform="translate(-51.322 -46.896)"/><path class="a" d="M82.945,76.707a.223.223,0,1,1,.223.222.223.223,0,0,1-.223-.222" transform="translate(-60.154 -55.911)"/><path class="a" d="M75.271,78.128a.195.195,0,1,1,.195.194.194.194,0,0,1-.195-.194" transform="translate(-54.589 -56.962)"/><path class="a" d="M85.324,17.211a.694.694,0,1,1,.694.692.693.693,0,0,1-.694-.692" transform="translate(-61.879 -12.422)"/><path class="a" d="M88.091,15.221a.3.3,0,1,1,.3.3.3.3,0,0,1-.3-.3" transform="translate(-63.886 -11.261)"/><path class="a" d="M89.282,16.623a.28.28,0,1,1,.28.28.28.28,0,0,1-.28-.28" transform="translate(-64.75 -12.295)"/><path class="a" d="M91.955,19.435a.164.164,0,1,1,.152.174.164.164,0,0,1-.152-.174" transform="translate(-66.688 -14.427)"/><path class="a" d="M91.07,18.5a.2.2,0,1,1,.2.2.2.2,0,0,1-.2-.2" transform="translate(-66.046 -13.714)"/><path class="a" d="M92.552,20.157a.134.134,0,1,1,.134.134.134.134,0,0,1-.134-.134" transform="translate(-67.121 -14.963)"/><path class="a" d="M81.214,10.953a.755.755,0,1,1,.755.753.754.754,0,0,1-.755-.753" transform="translate(-58.899 -7.839)"/><path class="a" d="M80.779,9.474a.491.491,0,1,1,.491.49.49.49,0,0,1-.491-.49" transform="translate(-58.583 -6.958)"/><path class="a" d="M70.565,20.319a.48.48,0,1,1,.48.479.48.48,0,0,1-.48-.479" transform="translate(-51.175 -14.831)"/><path class="a" d="M67.92,19.309a.453.453,0,1,1,.453.452.452.452,0,0,1-.453-.452" transform="translate(-49.258 -14.118)"/><path class="a" d="M69.831,21.511a.2.2,0,1,1,.2.2.2.2,0,0,1-.2-.2" transform="translate(-50.643 -15.896)"/><path class="a" d="M71.521,22.789a.16.16,0,1,1,.16.16.159.159,0,0,1-.16-.16" transform="translate(-51.869 -16.854)"/><path class="a" d="M72.252,23.435a.135.135,0,1,1,.135.134.135.135,0,0,1-.135-.134" transform="translate(-52.399 -17.34)"/><path class="a" d="M70.755,21.961a.2.2,0,1,1,.2.2.2.2,0,0,1-.2-.2" transform="translate(-51.314 -16.224)"/><path class="a" d="M89.69,41.2a.515.515,0,1,1,.515.513.514.514,0,0,1-.515-.513" transform="translate(-65.045 -29.948)"/><path class="a" d="M87.19,44a.484.484,0,1,1,.484.483A.483.483,0,0,1,87.19,44" transform="translate(-63.232 -32.002)"/><path class="a" d="M87.68,78.663a.484.484,0,1,1,.484.483.483.483,0,0,1-.484-.483" transform="translate(-63.588 -57.141)"/><path class="a" d="M86.913,76.182a.4.4,0,1,1,.4.4.4.4,0,0,1-.4-.4" transform="translate(-63.031 -55.4)"/><path class="a" d="M84.9,77.812a.363.363,0,1,1,.363.362.363.363,0,0,1-.363-.362" transform="translate(-61.57 -56.611)"/><path class="a" d="M69.919,62.936a.138.138,0,1,1,.138.137.137.137,0,0,1-.138-.137" transform="translate(-50.707 -45.985)"/><path class="a" d="M48.216,22.1a.3.3,0,1,1,.3.3.3.3,0,0,1-.3-.3" transform="translate(-34.967 -16.253)"/><path class="a" d="M38.645,29.235a.683.683,0,1,1,.683.681.682.682,0,0,1-.683-.681" transform="translate(-28.027 -21.15)"/><path class="a" d="M45.807,14.856a.581.581,0,1,1,.581.579.58.58,0,0,1-.581-.579" transform="translate(-33.221 -10.796)"/><path class="a" d="M50.867,19.47a.425.425,0,1,1,.425.424.424.424,0,0,1-.425-.424" transform="translate(-36.89 -14.255)"/><path class="a" d="M30.438,32.406a.7.7,0,1,1,.7.7.7.7,0,0,1-.7-.7" transform="translate(-22.074 -23.438)"/><path class="a" d="M28.656,44.051a.565.565,0,1,1,.565.563.564.564,0,0,1-.565-.563" transform="translate(-20.782 -31.981)"/></g></svg>